<svg width="40" height="40" viewBox="0 0 40 40" fill="none" xmlns="http://www.w3.org/2000/svg">
<rect width="40" height="40" rx="8" fill="#E7E7FF"/>
<path d="M12.7537 14.04L9.51367 10.8L10.9137 9.38L14.1537 12.62H29.3937C29.6737 12.62 29.9103 12.7167 30.1037 12.91C30.297 13.1033 30.3937 13.34 30.3937 13.62C30.3937 13.7133 30.3803 13.8067 30.3537 13.9L27.9537 21.9C27.9003 22.1133 27.7837 22.2867 27.6037 22.42C27.4237 22.5533 27.2203 22.62 26.9937 22.62H14.7537V24.62H25.7537V26.62H13.7537C13.4737 26.62 13.237 26.5233 13.0437 26.33C12.8503 26.1367 12.7537 25.9 12.7537 25.62V14.04ZM14.7537 14.62V20.62H26.2537L28.0537 14.62H14.7537ZM14.2537 30.62C13.8403 30.62 13.487 30.4733 13.1937 30.18C12.9003 29.8867 12.7537 29.5333 12.7537 29.12C12.7537 28.7067 12.9003 28.3533 13.1937 28.06C13.487 27.7667 13.8403 27.62 14.2537 27.62C14.667 27.62 15.0203 27.7667 15.3137 28.06C15.607 28.3533 15.7537 28.7067 15.7537 29.12C15.7537 29.5333 15.607 29.8867 15.3137 30.18C15.0203 30.4733 14.667 30.62 14.2537 30.62ZM26.2537 30.62C25.8403 30.62 25.487 30.4733 25.1937 30.18C24.9003 29.8867 24.7537 29.5333 24.7537 29.12C24.7537 28.7067 24.9003 28.3533 25.1937 28.06C25.487 27.7667 25.8403 27.62 26.2537 27.62C26.667 27.62 27.0203 27.7667 27.3137 28.06C27.607 28.3533 27.7537 28.7067 27.7537 29.12C27.7537 29.5333 27.607 29.8867 27.3137 30.18C27.0203 30.4733 26.667 30.62 26.2537 30.62Z" fill="#666CFF"/>
</svg>
