<svg width="40" height="40" viewBox="0 0 40 40" fill="none" xmlns="http://www.w3.org/2000/svg">
<rect width="40" height="40" rx="8" fill="#E8FADD"/>
<path d="M19.9537 10C21.2204 10 22.4004 10.32 23.4937 10.96C24.547 11.5733 25.3804 12.4067 25.9937 13.46C26.6337 14.5533 26.9537 15.7333 26.9537 17H28.0337C28.287 17 28.5104 17.09 28.7037 17.27C28.897 17.45 29.007 17.6667 29.0337 17.92L29.8737 28.92C29.887 29.2 29.8037 29.4433 29.6237 29.65C29.4437 29.8567 29.2204 29.9733 28.9537 30H11.0337C10.7537 30 10.517 29.9033 10.3237 29.71C10.1304 29.5167 10.0337 29.28 10.0337 29L10.8737 17.92C10.9004 17.6667 11.0104 17.45 11.2037 17.27C11.397 17.09 11.6204 17 11.8737 17H12.9537C12.9537 15.7333 13.2737 14.5533 13.9137 13.46C14.527 12.4067 15.3604 11.5733 16.4137 10.96C17.507 10.32 18.687 10 19.9537 10ZM27.0937 19H12.8137L12.1137 28H27.7937L27.0937 19ZM21.9537 21V23H17.9537V21H21.9537ZM19.9537 12C19.0737 12 18.257 12.2133 17.5037 12.64C16.7504 13.0667 16.147 13.6467 15.6937 14.38C15.2404 15.1133 14.9937 15.9133 14.9537 16.78V17H24.9537C24.9537 16.12 24.7404 15.3033 24.3137 14.55C23.887 13.7967 23.307 13.1933 22.5737 12.74C21.8404 12.2867 21.0404 12.04 20.1737 12H19.9537Z" fill="#72E128"/>
</svg>
