<svg width="80" height="35" viewBox="0 0 80 35" fill="none" xmlns="http://www.w3.org/2000/svg">
<path d="M0 17.7967C0 17.1523 0.522334 16.63 1.16667 16.63H8.54762C9.19195 16.63 9.71429 17.1523 9.71429 17.7967C9.71429 18.441 9.19195 18.9633 8.54762 18.9633H1.16667C0.522333 18.9633 0 18.441 0 17.7967Z" fill="#1C1C1C"/>
<path d="M11.7144 17.7967C11.7144 17.1523 12.2367 16.63 12.881 16.63H20.262C20.9063 16.63 21.4286 17.1523 21.4286 17.7967C21.4286 18.441 20.9063 18.9633 20.262 18.9633H12.881C12.2367 18.9633 11.7144 18.441 11.7144 17.7967Z" fill="#1C1C1C" fill-opacity="0.4"/>
<path d="M23.4287 17.7967C23.4287 17.1523 23.951 16.63 24.5954 16.63H31.9763C32.6207 16.63 33.143 17.1523 33.143 17.7967C33.143 18.441 32.6207 18.9633 31.9763 18.9633H24.5954C23.951 18.9633 23.4287 18.441 23.4287 17.7967Z" fill="#1C1C1C" fill-opacity="0.1"/>
</svg>
