<svg width="80" height="36" viewBox="0 0 80 36" fill="none" xmlns="http://www.w3.org/2000/svg">
<path d="M0 18.13C0 17.4857 0.522335 16.9633 1.16667 16.9633H17.3333C17.9777 16.9633 18.5 17.4857 18.5 18.13C18.5 18.7743 17.9777 19.2967 17.3333 19.2967H1.16667C0.522335 19.2967 0 18.7743 0 18.13Z" fill="#1C1C1C"/>
<path d="M20.5 18.13C20.5 17.4857 21.0223 16.9633 21.6667 16.9633H37.8333C38.4777 16.9633 39 17.4857 39 18.13C39 18.7743 38.4777 19.2967 37.8333 19.2967H21.6667C21.0223 19.2967 20.5 18.7743 20.5 18.13Z" fill="#1C1C1C" fill-opacity="0.4"/>
<path d="M41 18.13C41 17.4857 41.5223 16.9633 42.1667 16.9633H58.3333C58.9777 16.9633 59.5 17.4857 59.5 18.13C59.5 18.7743 58.9777 19.2967 58.3333 19.2967H42.1667C41.5223 19.2967 41 18.7743 41 18.13Z" fill="#1C1C1C" fill-opacity="0.1"/>
</svg>
