<svg width="614" height="245" viewBox="0 0 614 245" fill="none" xmlns="http://www.w3.org/2000/svg">
<path d="M0.903764 11.4482H1.97763C2.00888 11.7436 2.10973 11.9936 2.28018 12.1982C2.45348 12.3999 2.67791 12.5533 2.95348 12.6584C3.22905 12.7607 3.53445 12.8118 3.86967 12.8118C4.23331 12.8118 4.56001 12.7507 4.84979 12.6286C5.13956 12.5064 5.36967 12.3246 5.54013 12.0831C5.71058 11.8388 5.79581 11.5363 5.79581 11.1755C5.79581 10.8601 5.72195 10.5675 5.57422 10.2976C5.42649 10.0249 5.18928 9.80472 4.86257 9.63711C4.53587 9.46949 4.10263 9.38569 3.56286 9.38569H2.86399V8.53341L5.04581 5.90841V5.84023H1.3299V4.90273H6.49467V5.66978L4.15945 8.49932V8.5675C4.53445 8.58455 4.88388 8.66125 5.20774 8.79762C5.53445 8.93398 5.81854 9.11864 6.06001 9.3516C6.30433 9.58455 6.49467 9.85586 6.63104 10.1655C6.7674 10.4752 6.83558 10.8118 6.83558 11.1755C6.83558 11.6726 6.70774 12.1158 6.45206 12.505C6.19922 12.8914 5.84837 13.1953 5.3995 13.4169C4.95348 13.6385 4.43786 13.7493 3.85263 13.7493C3.33558 13.7493 2.85973 13.6584 2.42507 13.4766C1.99041 13.2948 1.63672 13.032 1.36399 12.6882C1.09126 12.3445 0.937855 11.9311 0.903764 11.4482ZM11.4219 13.7493C10.7798 13.7493 10.233 13.5746 9.78125 13.2252C9.32955 12.8729 8.98438 12.363 8.74574 11.6953C8.5071 11.0249 8.38778 10.2152 8.38778 9.26637C8.38778 8.32319 8.5071 7.51779 8.74574 6.85018C8.98722 6.17972 9.33381 5.66836 9.78551 5.31608C10.2401 4.96097 10.7855 4.78341 11.4219 4.78341C12.0582 4.78341 12.6023 4.96097 13.054 5.31608C13.5085 5.66836 13.8551 6.17972 14.0938 6.85018C14.3352 7.51779 14.456 8.32319 14.456 9.26637C14.456 10.2152 14.3366 11.0249 14.098 11.6953C13.8594 12.363 13.5142 12.8729 13.0625 13.2252C12.6108 13.5746 12.0639 13.7493 11.4219 13.7493ZM11.4219 12.8118C12.0582 12.8118 12.5526 12.505 12.9048 11.8914C13.2571 11.2777 13.4332 10.4027 13.4332 9.26637C13.4332 8.51069 13.3523 7.86722 13.1903 7.33597C13.0313 6.80472 12.8011 6.39989 12.5 6.12148C12.2017 5.84307 11.8423 5.70387 11.4219 5.70387C10.7912 5.70387 10.2983 6.01495 9.94318 6.63711C9.58807 7.25642 9.41051 8.13285 9.41051 9.26637C9.41051 10.0221 9.49006 10.6641 9.64915 11.1925C9.80824 11.7209 10.0369 12.1229 10.3352 12.3985C10.6364 12.674 10.9986 12.8118 11.4219 12.8118ZM16.2287 13.63V4.90273H17.2855V9.23228H17.3878L21.3082 4.90273H22.6889L19.0241 8.84023L22.6889 13.63H21.4105L18.3764 9.57319L17.2855 10.8005V13.63H16.2287Z" fill="#1C1C1C" fill-opacity="0.4"/>
<path d="M1.30966 74.63V73.863L4.19034 70.7096C4.52841 70.3402 4.80682 70.0192 5.02557 69.7465C5.24432 69.4709 5.40625 69.2124 5.51136 68.9709C5.61932 68.7266 5.6733 68.4709 5.6733 68.2039C5.6733 67.8971 5.59943 67.6314 5.4517 67.407C5.30682 67.1826 5.10795 67.0093 4.85511 66.8871C4.60227 66.7649 4.31818 66.7039 4.00284 66.7039C3.66761 66.7039 3.375 66.7735 3.125 66.9127C2.87784 67.049 2.68608 67.2408 2.54972 67.488C2.41619 67.7351 2.34943 68.0249 2.34943 68.3573H1.34375C1.34375 67.8459 1.46165 67.3971 1.69744 67.0107C1.93324 66.6243 2.25426 66.3232 2.66051 66.1073C3.0696 65.8914 3.52841 65.7834 4.03693 65.7834C4.5483 65.7834 5.00142 65.8914 5.39631 66.1073C5.79119 66.3232 6.10085 66.6144 6.32528 66.9809C6.54972 67.3473 6.66193 67.755 6.66193 68.2039C6.66193 68.5249 6.60369 68.8388 6.48722 69.1456C6.37358 69.4496 6.17472 69.7891 5.89062 70.1641C5.60938 70.5363 5.21875 70.9908 4.71875 71.5277L2.75852 73.6243V73.6925H6.81534V74.63H1.30966ZM11.4219 74.7493C10.7798 74.7493 10.233 74.5746 9.78125 74.2252C9.32955 73.8729 8.98438 73.363 8.74574 72.6953C8.5071 72.0249 8.38778 71.2152 8.38778 70.2664C8.38778 69.3232 8.5071 68.5178 8.74574 67.8502C8.98722 67.1797 9.33381 66.6684 9.78551 66.3161C10.2401 65.961 10.7855 65.7834 11.4219 65.7834C12.0582 65.7834 12.6023 65.961 13.054 66.3161C13.5085 66.6684 13.8551 67.1797 14.0938 67.8502C14.3352 68.5178 14.456 69.3232 14.456 70.2664C14.456 71.2152 14.3366 72.0249 14.098 72.6953C13.8594 73.363 13.5142 73.8729 13.0625 74.2252C12.6108 74.5746 12.0639 74.7493 11.4219 74.7493ZM11.4219 73.8118C12.0582 73.8118 12.5526 73.505 12.9048 72.8914C13.2571 72.2777 13.4332 71.4027 13.4332 70.2664C13.4332 69.5107 13.3523 68.8672 13.1903 68.336C13.0313 67.8047 12.8011 67.3999 12.5 67.1215C12.2017 66.8431 11.8423 66.7039 11.4219 66.7039C10.7912 66.7039 10.2983 67.0149 9.94318 67.6371C9.58807 68.2564 9.41051 69.1328 9.41051 70.2664C9.41051 71.0221 9.49006 71.6641 9.64915 72.1925C9.80824 72.7209 10.0369 73.1229 10.3352 73.3985C10.6364 73.674 10.9986 73.8118 11.4219 73.8118ZM16.2287 74.63V65.9027H17.2855V70.2323H17.3878L21.3082 65.9027H22.6889L19.0241 69.8402L22.6889 74.63H21.4105L18.3764 70.5732L17.2855 71.8005V74.63H16.2287Z" fill="#1C1C1C" fill-opacity="0.4"/>
<path d="M6.07386 126.903V135.63H5.01705V128.437H4.94886C4.90909 128.516 4.80682 128.607 4.64205 128.71C4.47727 128.809 4.2642 128.897 4.00284 128.974C3.74148 129.048 3.44318 129.085 3.10795 129.085V128.198C3.44602 128.198 3.73864 128.137 3.9858 128.015C4.23295 127.893 4.43892 127.749 4.60369 127.585C4.77131 127.42 4.89773 127.271 4.98295 127.137C5.07102 127.004 5.12216 126.925 5.13636 126.903H6.07386ZM11.4219 135.749C10.7798 135.749 10.233 135.575 9.78125 135.225C9.32955 134.873 8.98438 134.363 8.74574 133.695C8.5071 133.025 8.38778 132.215 8.38778 131.266C8.38778 130.323 8.5071 129.518 8.74574 128.85C8.98722 128.18 9.33381 127.668 9.78551 127.316C10.2401 126.961 10.7855 126.783 11.4219 126.783C12.0582 126.783 12.6023 126.961 13.054 127.316C13.5085 127.668 13.8551 128.18 14.0938 128.85C14.3352 129.518 14.456 130.323 14.456 131.266C14.456 132.215 14.3366 133.025 14.098 133.695C13.8594 134.363 13.5142 134.873 13.0625 135.225C12.6108 135.575 12.0639 135.749 11.4219 135.749ZM11.4219 134.812C12.0582 134.812 12.5526 134.505 12.9048 133.891C13.2571 133.278 13.4332 132.403 13.4332 131.266C13.4332 130.511 13.3523 129.867 13.1903 129.336C13.0313 128.805 12.8011 128.4 12.5 128.121C12.2017 127.843 11.8423 127.704 11.4219 127.704C10.7912 127.704 10.2983 128.015 9.94318 128.637C9.58807 129.256 9.41051 130.133 9.41051 131.266C9.41051 132.022 9.49006 132.664 9.64915 133.193C9.80824 133.721 10.0369 134.123 10.3352 134.398C10.6364 134.674 10.9986 134.812 11.4219 134.812ZM16.2287 135.63V126.903H17.2855V131.232H17.3878L21.3082 126.903H22.6889L19.0241 130.84L22.6889 135.63H21.4105L18.3764 131.573L17.2855 132.8V135.63H16.2287Z" fill="#1C1C1C" fill-opacity="0.4"/>
<path d="M19.25 196.749C18.608 196.749 18.0611 196.575 17.6094 196.225C17.1577 195.873 16.8125 195.363 16.5739 194.695C16.3352 194.025 16.2159 193.215 16.2159 192.266C16.2159 191.323 16.3352 190.518 16.5739 189.85C16.8153 189.18 17.1619 188.668 17.6136 188.316C18.0682 187.961 18.6136 187.783 19.25 187.783C19.8864 187.783 20.4304 187.961 20.8821 188.316C21.3366 188.668 21.6832 189.18 21.9219 189.85C22.1634 190.518 22.2841 191.323 22.2841 192.266C22.2841 193.215 22.1648 194.025 21.9261 194.695C21.6875 195.363 21.3423 195.873 20.8906 196.225C20.4389 196.575 19.892 196.749 19.25 196.749ZM19.25 195.812C19.8864 195.812 20.3807 195.505 20.733 194.891C21.0852 194.278 21.2614 193.403 21.2614 192.266C21.2614 191.511 21.1804 190.867 21.0185 190.336C20.8594 189.805 20.6293 189.4 20.3281 189.121C20.0298 188.843 19.6705 188.704 19.25 188.704C18.6193 188.704 18.1264 189.015 17.7713 189.637C17.4162 190.256 17.2386 191.133 17.2386 192.266C17.2386 193.022 17.3182 193.664 17.4773 194.193C17.6364 194.721 17.8651 195.123 18.1634 195.398C18.4645 195.674 18.8267 195.812 19.25 195.812Z" fill="#1C1C1C" fill-opacity="0.4"/>
<path d="M73.975 230.903H75.0318V237.141C75.0318 237.698 74.9296 238.171 74.725 238.56C74.5205 238.95 74.2321 239.245 73.86 239.447C73.4878 239.648 73.0489 239.749 72.5432 239.749C72.0659 239.749 71.6412 239.663 71.2691 239.489C70.8969 239.313 70.6043 239.063 70.3912 238.739C70.1781 238.416 70.0716 238.031 70.0716 237.585H71.1114C71.1114 237.832 71.1725 238.048 71.2946 238.232C71.4196 238.414 71.5901 238.556 71.806 238.658C72.0219 238.761 72.2676 238.812 72.5432 238.812C72.8472 238.812 73.1057 238.748 73.3188 238.62C73.5318 238.492 73.6938 238.305 73.8046 238.058C73.9182 237.808 73.975 237.502 73.975 237.141V230.903ZM79.485 239.766C78.9395 239.766 78.458 239.629 78.0404 239.353C77.6227 239.075 77.296 238.683 77.0602 238.177C76.8244 237.668 76.7066 237.068 76.7066 236.374C76.7066 235.687 76.8244 235.09 77.0602 234.585C77.296 234.079 77.6242 233.688 78.0446 233.413C78.4651 233.137 78.9509 232.999 79.502 232.999C79.9281 232.999 80.2648 233.07 80.5119 233.212C80.7619 233.352 80.9523 233.511 81.083 233.69C81.2165 233.866 81.3202 234.011 81.3941 234.124H81.4793V233.085H82.485V239.63H81.5134V238.624H81.3941C81.3202 238.744 81.2151 238.894 81.0787 239.076C80.9423 239.255 80.7477 239.416 80.4949 239.558C80.2421 239.697 79.9054 239.766 79.485 239.766ZM79.6213 238.863C80.0247 238.863 80.3656 238.758 80.6441 238.548C80.9225 238.335 81.1341 238.041 81.279 237.666C81.4239 237.288 81.4963 236.852 81.4963 236.357C81.4963 235.869 81.4253 235.441 81.2833 235.075C81.1412 234.705 80.931 234.418 80.6526 234.214C80.3742 234.006 80.0304 233.903 79.6213 233.903C79.1952 233.903 78.8401 234.012 78.556 234.231C78.2747 234.447 78.0631 234.741 77.921 235.113C77.7818 235.482 77.7122 235.897 77.7122 236.357C77.7122 236.823 77.7833 237.246 77.9253 237.627C78.0702 238.005 78.2833 238.306 78.5645 238.531C78.8486 238.752 79.2009 238.863 79.6213 238.863ZM85.4722 235.693V239.63H84.4665V233.085H85.4381V234.107H85.5233C85.6767 233.775 85.9097 233.508 86.2222 233.306C86.5347 233.102 86.9381 232.999 87.4324 232.999C87.8756 232.999 88.2634 233.09 88.5958 233.272C88.9281 233.451 89.1867 233.724 89.3713 234.09C89.556 234.454 89.6483 234.914 89.6483 235.471V239.63H88.6426V235.539C88.6426 235.025 88.5091 234.624 88.2421 234.337C87.975 234.048 87.6085 233.903 87.1426 233.903C86.8216 233.903 86.5347 233.972 86.2818 234.112C86.0318 234.251 85.8344 234.454 85.6895 234.721C85.5446 234.988 85.4722 235.312 85.4722 235.693Z" fill="#1C1C1C" fill-opacity="0.4"/>
<path d="M152.771 239.63V230.903H158.004V231.84H153.828V234.789H157.612V235.727H153.828V239.63H152.771ZM161.942 239.766C161.311 239.766 160.767 239.627 160.31 239.349C159.855 239.068 159.504 238.675 159.257 238.173C159.013 237.667 158.891 237.079 158.891 236.408C158.891 235.738 159.013 235.147 159.257 234.636C159.504 234.121 159.848 233.721 160.288 233.434C160.732 233.144 161.249 232.999 161.839 232.999C162.18 232.999 162.517 233.056 162.849 233.17C163.182 233.283 163.484 233.468 163.757 233.724C164.03 233.977 164.247 234.312 164.409 234.729C164.571 235.147 164.652 235.661 164.652 236.272V236.698H159.607V235.829H163.629C163.629 235.46 163.555 235.13 163.408 234.84C163.263 234.55 163.055 234.322 162.786 234.154C162.518 233.987 162.203 233.903 161.839 233.903C161.439 233.903 161.092 234.002 160.8 234.201C160.51 234.397 160.287 234.653 160.131 234.968C159.974 235.283 159.896 235.621 159.896 235.982V236.562C159.896 237.056 159.982 237.475 160.152 237.819C160.325 238.16 160.565 238.42 160.872 238.599C161.179 238.775 161.536 238.863 161.942 238.863C162.206 238.863 162.445 238.826 162.658 238.752C162.874 238.675 163.06 238.562 163.216 238.411C163.372 238.258 163.493 238.068 163.578 237.84L164.55 238.113C164.447 238.443 164.276 238.732 164.034 238.982C163.793 239.229 163.494 239.423 163.139 239.562C162.784 239.698 162.385 239.766 161.942 239.766ZM166.318 239.63V230.903H167.324V234.124H167.409C167.483 234.011 167.585 233.866 167.716 233.69C167.849 233.511 168.04 233.352 168.287 233.212C168.537 233.07 168.875 232.999 169.301 232.999C169.852 232.999 170.338 233.137 170.759 233.413C171.179 233.688 171.507 234.079 171.743 234.585C171.979 235.09 172.097 235.687 172.097 236.374C172.097 237.068 171.979 237.668 171.743 238.177C171.507 238.683 171.18 239.075 170.763 239.353C170.345 239.629 169.864 239.766 169.318 239.766C168.898 239.766 168.561 239.697 168.308 239.558C168.055 239.416 167.861 239.255 167.724 239.076C167.588 238.894 167.483 238.744 167.409 238.624H167.29V239.63H166.318ZM167.307 236.357C167.307 236.852 167.379 237.288 167.524 237.666C167.669 238.041 167.881 238.335 168.159 238.548C168.438 238.758 168.778 238.863 169.182 238.863C169.602 238.863 169.953 238.752 170.234 238.531C170.518 238.306 170.732 238.005 170.874 237.627C171.018 237.246 171.091 236.823 171.091 236.357C171.091 235.897 171.02 235.482 170.878 235.113C170.739 234.741 170.527 234.447 170.243 234.231C169.962 234.012 169.608 233.903 169.182 233.903C168.773 233.903 168.429 234.006 168.151 234.214C167.872 234.418 167.662 234.705 167.52 235.075C167.378 235.441 167.307 235.869 167.307 236.357Z" fill="#1C1C1C" fill-opacity="0.4"/>
<path d="M234.117 230.903H235.378L238.344 238.147H238.447L241.412 230.903H242.674V239.63H241.685V232.999H241.6L238.873 239.63H237.918L235.191 232.999H235.106V239.63H234.117V230.903ZM247.128 239.766C246.583 239.766 246.101 239.629 245.683 239.353C245.266 239.075 244.939 238.683 244.703 238.177C244.468 237.668 244.35 237.068 244.35 236.374C244.35 235.687 244.468 235.09 244.703 234.585C244.939 234.079 245.267 233.688 245.688 233.413C246.108 233.137 246.594 232.999 247.145 232.999C247.571 232.999 247.908 233.07 248.155 233.212C248.405 233.352 248.595 233.511 248.726 233.69C248.86 233.866 248.963 234.011 249.037 234.124H249.122V233.085H250.128V239.63H249.156V238.624H249.037C248.963 238.744 248.858 238.894 248.722 239.076C248.585 239.255 248.391 239.416 248.138 239.558C247.885 239.697 247.548 239.766 247.128 239.766ZM247.264 238.863C247.668 238.863 248.009 238.758 248.287 238.548C248.566 238.335 248.777 238.041 248.922 237.666C249.067 237.288 249.139 236.852 249.139 236.357C249.139 235.869 249.068 235.441 248.926 235.075C248.784 234.705 248.574 234.418 248.296 234.214C248.017 234.006 247.673 233.903 247.264 233.903C246.838 233.903 246.483 234.012 246.199 234.231C245.918 234.447 245.706 234.741 245.564 235.113C245.425 235.482 245.355 235.897 245.355 236.357C245.355 236.823 245.426 237.246 245.568 237.627C245.713 238.005 245.926 238.306 246.208 238.531C246.492 238.752 246.844 238.863 247.264 238.863ZM252.11 239.63V233.085H253.081V234.073H253.149C253.269 233.749 253.485 233.487 253.797 233.285C254.11 233.083 254.462 232.982 254.854 232.982C254.928 232.982 255.02 232.984 255.131 232.987C255.242 232.989 255.325 232.994 255.382 232.999V234.022C255.348 234.014 255.27 234.001 255.148 233.984C255.029 233.964 254.902 233.954 254.769 233.954C254.45 233.954 254.166 234.021 253.916 234.154C253.669 234.285 253.473 234.467 253.328 234.7C253.186 234.93 253.115 235.193 253.115 235.488V239.63H252.11Z" fill="#1C1C1C" fill-opacity="0.4"/>
<path d="M317.972 239.63H316.864L320.068 230.903H321.159L324.364 239.63H323.256L320.648 232.283H320.58L317.972 239.63ZM318.381 236.221H322.847V237.158H318.381V236.221ZM325.587 242.085V233.085H326.558V234.124H326.678C326.751 234.011 326.854 233.866 326.984 233.69C327.118 233.511 327.308 233.352 327.555 233.212C327.805 233.07 328.143 232.999 328.57 232.999C329.121 232.999 329.606 233.137 330.027 233.413C330.447 233.688 330.776 234.079 331.011 234.585C331.247 235.09 331.365 235.687 331.365 236.374C331.365 237.068 331.247 237.668 331.011 238.177C330.776 238.683 330.449 239.075 330.031 239.353C329.614 239.629 329.132 239.766 328.587 239.766C328.166 239.766 327.83 239.697 327.577 239.558C327.324 239.416 327.129 239.255 326.993 239.076C326.856 238.894 326.751 238.744 326.678 238.624H326.592V242.085H325.587ZM326.575 236.357C326.575 236.852 326.648 237.288 326.793 237.666C326.937 238.041 327.149 238.335 327.428 238.548C327.706 238.758 328.047 238.863 328.45 238.863C328.871 238.863 329.222 238.752 329.503 238.531C329.787 238.306 330 238.005 330.142 237.627C330.287 237.246 330.359 236.823 330.359 236.357C330.359 235.897 330.288 235.482 330.146 235.113C330.007 234.741 329.795 234.447 329.511 234.231C329.23 234.012 328.876 233.903 328.45 233.903C328.041 233.903 327.697 234.006 327.419 234.214C327.141 234.418 326.93 234.705 326.788 235.075C326.646 235.441 326.575 235.869 326.575 236.357ZM332.899 239.63V233.085H333.871V234.073H333.939C334.058 233.749 334.274 233.487 334.587 233.285C334.899 233.083 335.251 232.982 335.643 232.982C335.717 232.982 335.81 232.984 335.92 232.987C336.031 232.989 336.115 232.994 336.172 232.999V234.022C336.138 234.014 336.06 234.001 335.937 233.984C335.818 233.964 335.692 233.954 335.558 233.954C335.24 233.954 334.956 234.021 334.706 234.154C334.459 234.285 334.263 234.467 334.118 234.7C333.976 234.93 333.905 235.193 333.905 235.488V239.63H332.899Z" fill="#1C1C1C" fill-opacity="0.4"/>
<path d="M397.295 230.903H398.557L401.523 238.147H401.625L404.591 230.903H405.852V239.63H404.863V232.999H404.778L402.051 239.63H401.096L398.369 232.999H398.284V239.63H397.295V230.903ZM410.306 239.766C409.761 239.766 409.279 239.629 408.862 239.353C408.444 239.075 408.117 238.683 407.882 238.177C407.646 237.668 407.528 237.068 407.528 236.374C407.528 235.687 407.646 235.09 407.882 234.585C408.117 234.079 408.445 233.688 408.866 233.413C409.286 233.137 409.772 232.999 410.323 232.999C410.749 232.999 411.086 233.07 411.333 233.212C411.583 233.352 411.774 233.511 411.904 233.69C412.038 233.866 412.141 234.011 412.215 234.124H412.301V233.085H413.306V239.63H412.335V238.624H412.215C412.141 238.744 412.036 238.894 411.9 239.076C411.764 239.255 411.569 239.416 411.316 239.558C411.063 239.697 410.727 239.766 410.306 239.766ZM410.443 238.863C410.846 238.863 411.187 238.758 411.465 238.548C411.744 238.335 411.955 238.041 412.1 237.666C412.245 237.288 412.318 236.852 412.318 236.357C412.318 235.869 412.247 235.441 412.105 235.075C411.962 234.705 411.752 234.418 411.474 234.214C411.195 234.006 410.852 233.903 410.443 233.903C410.016 233.903 409.661 234.012 409.377 234.231C409.096 234.447 408.884 234.741 408.742 235.113C408.603 235.482 408.534 235.897 408.534 236.357C408.534 236.823 408.605 237.246 408.747 237.627C408.891 238.005 409.105 238.306 409.386 238.531C409.67 238.752 410.022 238.863 410.443 238.863ZM415.936 242.085C415.765 242.085 415.613 242.07 415.48 242.042C415.346 242.016 415.254 241.991 415.203 241.965L415.458 241.079C415.703 241.141 415.918 241.164 416.106 241.147C416.293 241.13 416.46 241.046 416.605 240.896C416.752 240.748 416.887 240.508 417.009 240.175L417.197 239.664L414.776 233.085H415.867L417.674 238.3H417.742L419.549 233.085H420.64L417.862 240.585C417.737 240.923 417.582 241.202 417.397 241.424C417.212 241.648 416.998 241.815 416.754 241.923C416.512 242.031 416.239 242.085 415.936 242.085Z" fill="#1C1C1C" fill-opacity="0.4"/>
<path d="M484.93 230.903H485.986V237.141C485.986 237.698 485.884 238.171 485.68 238.56C485.475 238.95 485.187 239.245 484.815 239.447C484.442 239.648 484.003 239.749 483.498 239.749C483.021 239.749 482.596 239.663 482.224 239.489C481.851 239.313 481.559 239.063 481.346 238.739C481.133 238.416 481.026 238.031 481.026 237.585H482.066C482.066 237.832 482.127 238.048 482.249 238.232C482.374 238.414 482.545 238.556 482.761 238.658C482.976 238.761 483.222 238.812 483.498 238.812C483.802 238.812 484.06 238.748 484.273 238.62C484.486 238.492 484.648 238.305 484.759 238.058C484.873 237.808 484.93 237.502 484.93 237.141V230.903ZM492.093 236.954V233.085H493.099V239.63H492.093V238.522H492.025C491.871 238.854 491.633 239.137 491.309 239.37C490.985 239.6 490.576 239.715 490.082 239.715C489.673 239.715 489.309 239.626 488.991 239.447C488.673 239.265 488.423 238.992 488.241 238.629C488.059 238.262 487.968 237.8 487.968 237.244V233.085H488.974V237.175C488.974 237.653 489.107 238.033 489.374 238.318C489.644 238.602 489.988 238.744 490.405 238.744C490.655 238.744 490.91 238.68 491.168 238.552C491.43 238.424 491.648 238.228 491.824 237.964C492.003 237.7 492.093 237.363 492.093 236.954ZM495.946 235.693V239.63H494.941V233.085H495.912V234.107H495.997C496.151 233.775 496.384 233.508 496.696 233.306C497.009 233.102 497.412 232.999 497.907 232.999C498.35 232.999 498.737 233.09 499.07 233.272C499.402 233.451 499.661 233.724 499.845 234.09C500.03 234.454 500.122 234.914 500.122 235.471V239.63H499.117V235.539C499.117 235.025 498.983 234.624 498.716 234.337C498.449 234.048 498.083 233.903 497.617 233.903C497.296 233.903 497.009 233.972 496.756 234.112C496.506 234.251 496.309 234.454 496.164 234.721C496.019 234.988 495.946 235.312 495.946 235.693Z" fill="#1C1C1C" fill-opacity="0.4"/>
<path d="M569.159 230.903H570.215V237.141C570.215 237.698 570.113 238.171 569.909 238.56C569.704 238.95 569.416 239.245 569.044 239.447C568.671 239.648 568.232 239.749 567.727 239.749C567.25 239.749 566.825 239.663 566.453 239.489C566.08 239.313 565.788 239.063 565.575 238.739C565.362 238.416 565.255 238.031 565.255 237.585H566.295C566.295 237.832 566.356 238.048 566.478 238.232C566.603 238.414 566.774 238.556 566.99 238.658C567.205 238.761 567.451 238.812 567.727 238.812C568.031 238.812 568.289 238.748 568.502 238.62C568.715 238.492 568.877 238.305 568.988 238.058C569.102 237.808 569.159 237.502 569.159 237.141V230.903ZM576.322 236.954V233.085H577.328V239.63H576.322V238.522H576.254C576.1 238.854 575.862 239.137 575.538 239.37C575.214 239.6 574.805 239.715 574.311 239.715C573.902 239.715 573.538 239.626 573.22 239.447C572.902 239.265 572.652 238.992 572.47 238.629C572.288 238.262 572.197 237.8 572.197 237.244V233.085H573.203V237.175C573.203 237.653 573.336 238.033 573.603 238.318C573.873 238.602 574.217 238.744 574.634 238.744C574.884 238.744 575.139 238.68 575.397 238.552C575.659 238.424 575.877 238.228 576.054 237.964C576.232 237.7 576.322 237.363 576.322 236.954ZM580.175 230.903V239.63H579.17V230.903H580.175Z" fill="#1C1C1C" fill-opacity="0.4"/>
<mask id="mask0_22111_1538" style="mask-type:alpha" maskUnits="userSpaceOnUse" x="39" y="0" width="575" height="245">
<rect x="39" y="0.630005" width="575" height="244" fill="black"/>
</mask>
<g mask="url(#mask0_22111_1538)">
<path d="M41.0537 184.647L75.967 140.396C79.9617 135.333 86.1526 132.507 92.5948 132.806L129.3 134.508L171.151 138.254C176.32 138.717 181.467 137.152 185.504 133.89L238.424 91.1275C243.454 87.0633 250.96 88.7693 253.739 94.6082L285.4 161.135C288.444 167.531 294.644 171.84 301.701 172.463L344.592 176.247C351.877 176.89 358.931 173.506 362.989 167.421L385.163 134.17C390.399 126.319 400.41 123.196 409.181 126.678L431.662 135.601C443.045 140.12 455.778 133.439 458.53 121.505L468.757 77.1473C470.7 68.7179 477.842 62.4934 486.458 61.7205L531.343 57.6939C533.934 57.4615 536.455 56.7259 538.764 55.5283L597.572 25.03" stroke="#A8C5DA" stroke-linecap="round" stroke-dasharray="2 4"/>
</g>
<mask id="mask1_22111_1538" style="mask-type:alpha" maskUnits="userSpaceOnUse" x="39" y="0" width="575" height="245">
<rect x="39" y="0.630005" width="575" height="244" fill="black"/>
</mask>
<g mask="url(#mask1_22111_1538)">
<mask id="mask2_22111_1538" style="mask-type:alpha" maskUnits="userSpaceOnUse" x="41" y="41" width="557" height="204">
<path d="M64.1426 133.54L41.0537 143.814V244.63H597.572V68.8592L562.966 73.8261C558.907 74.4086 555.125 76.2248 552.132 79.0286L530.518 99.281C522.644 106.659 510.337 106.46 502.705 98.8325L488.789 84.9241C479.282 75.4233 464.617 73.4042 452.897 79.9826L444.297 84.8097C436.562 89.1517 426.768 85.8685 423.213 77.7412L411.157 50.1834C406.403 39.3147 391.509 38.006 384.932 47.8789C376.391 60.6989 361.248 67.4752 345.998 65.3009L332.642 63.3966C324.33 62.2116 316.163 66.3439 312.194 73.7424L286.921 120.858C283.05 128.075 275.169 132.202 267.032 131.275L235.629 127.696C222.925 126.249 210.294 130.962 201.644 140.377L199.938 142.234C187.645 155.615 171.163 164.412 153.204 167.178L142.96 168.756C138.034 169.515 133.293 171.187 128.982 173.688L128.255 174.109C117.954 180.083 104.748 175.789 99.9311 164.899L90.5632 143.722C86.0879 133.605 74.2498 129.043 64.1426 133.54Z" fill="url(#paint0_radial_22111_1538)"/>
</mask>
<g mask="url(#mask2_22111_1538)">
<path opacity="0.6" d="M64.1426 133.54L41.0537 143.814V244.63H597.572V68.8592L562.966 73.8261C558.907 74.4086 555.125 76.2248 552.132 79.0286L530.518 99.281C522.644 106.659 510.337 106.46 502.705 98.8325L488.789 84.9241C479.282 75.4233 464.617 73.4042 452.897 79.9826L444.297 84.8097C436.562 89.1517 426.768 85.8685 423.213 77.7412L411.157 50.1834C406.403 39.3147 391.509 38.006 384.932 47.8789C376.391 60.6989 361.248 67.4752 345.998 65.3009L332.642 63.3966C324.33 62.2116 316.163 66.3439 312.194 73.7424L286.921 120.858C283.05 128.075 275.169 132.202 267.032 131.275L235.629 127.696C222.925 126.249 210.294 130.962 201.644 140.377L199.938 142.234C187.645 155.615 171.163 164.412 153.204 167.178L142.96 168.756C138.034 169.515 133.293 171.187 128.982 173.688L128.255 174.109C117.954 180.083 104.748 175.789 99.9311 164.899L90.5632 143.722C86.0879 133.605 74.2498 129.043 64.1426 133.54Z" fill="#1C1C1C"/>
</g>
<path d="M41.0537 143.328L54.2039 137.501C63.5134 133.376 68.1681 131.313 72.5237 131.365C77.3217 131.421 81.9396 133.201 85.5347 136.379C88.7982 139.264 90.8649 143.917 94.9984 153.223L99.6551 163.706C99.9076 164.275 100.034 164.559 100.143 164.79C105.068 175.155 117.685 179.259 127.765 173.776C127.99 173.654 128.259 173.498 128.798 173.187V173.187C128.995 173.073 129.094 173.016 129.192 172.96C133.377 170.574 137.957 168.965 142.713 168.207C142.825 168.19 142.938 168.172 143.164 168.138L151.811 166.811C153.246 166.591 153.964 166.481 154.661 166.362C171.576 163.46 187.11 155.195 198.969 142.788C199.457 142.277 199.95 141.743 200.934 140.676V140.676C201.638 139.913 201.99 139.531 202.333 139.177C210.725 130.518 222.576 126.107 234.587 127.171C235.078 127.215 235.594 127.273 236.626 127.39L258.995 129.929C266.763 130.81 270.647 131.251 274.148 130.38C277.242 129.61 280.106 128.112 282.503 126.011C285.216 123.632 287.069 120.191 290.777 113.307L309.89 77.8211C312.095 73.7283 313.197 71.6819 314.575 70.0647C318.056 65.9798 323.032 63.4654 328.386 63.0866C330.505 62.9366 332.807 63.2634 337.409 63.9169L346.049 65.1438C346.063 65.1457 346.069 65.1466 346.075 65.1475C361.284 67.3022 376.383 60.5577 384.927 47.7932C384.93 47.788 384.934 47.7825 384.942 47.7714V47.7714C384.949 47.7606 384.952 47.7553 384.955 47.7516C391.539 37.9204 406.383 39.2276 411.148 50.0583C411.149 50.0624 411.152 50.0683 411.157 50.0802L421.523 73.6781C423.076 77.2156 423.853 78.9843 424.788 80.2776C428.55 85.482 435.207 87.7148 441.346 85.8308C442.871 85.3626 444.558 84.42 447.93 82.5348V82.5348C452.719 79.8577 455.114 78.5192 457.44 77.6825C466.69 74.355 476.984 75.7706 484.992 81.4718C487.006 82.9053 488.95 84.8405 492.839 88.711L496.306 92.1618C502.314 98.1422 505.318 101.132 508.646 102.627C513.654 104.878 519.368 104.97 524.446 102.882C527.82 101.495 530.919 98.6033 537.117 92.8197L549.379 81.3776C552.109 78.8296 553.474 77.5556 555.018 76.57C556.389 75.6953 557.86 74.9909 559.401 74.4724C561.137 73.8881 562.985 73.6239 566.683 73.0955L597.572 68.6802" stroke="url(#paint1_linear_22111_1538)" stroke-linecap="round"/>
<path d="M41.0537 143.328L54.2039 137.501C63.5134 133.376 68.1681 131.313 72.5237 131.365C77.3217 131.421 81.9396 133.201 85.5347 136.379C88.7982 139.264 90.8649 143.917 94.9984 153.223L99.6551 163.706C99.9076 164.275 100.034 164.559 100.143 164.79C105.068 175.155 117.685 179.259 127.765 173.776C127.99 173.654 128.259 173.498 128.798 173.187V173.187C128.995 173.073 129.094 173.016 129.192 172.96C133.377 170.574 137.957 168.965 142.713 168.207C142.825 168.19 142.938 168.172 143.164 168.138L151.811 166.811C153.246 166.591 153.964 166.481 154.661 166.362C171.576 163.46 187.11 155.195 198.969 142.788C199.457 142.277 199.95 141.743 200.934 140.676V140.676C201.638 139.913 201.99 139.531 202.333 139.177C210.725 130.518 222.576 126.107 234.587 127.171C235.078 127.215 235.594 127.273 236.626 127.39L258.995 129.929C266.763 130.81 270.647 131.251 274.148 130.38C277.242 129.61 280.106 128.112 282.503 126.011C285.216 123.632 287.069 120.191 290.777 113.307L309.89 77.8211C312.095 73.7283 313.197 71.6819 314.575 70.0647C318.056 65.9798 323.032 63.4654 328.386 63.0866C330.505 62.9366 332.807 63.2634 337.409 63.9169L346.049 65.1438C346.063 65.1457 346.069 65.1466 346.075 65.1475C361.284 67.3022 376.383 60.5577 384.927 47.7932C384.93 47.788 384.934 47.7825 384.942 47.7714V47.7714C384.949 47.7606 384.952 47.7553 384.955 47.7516C391.539 37.9204 406.383 39.2276 411.148 50.0583C411.149 50.0624 411.152 50.0683 411.157 50.0802L421.523 73.6781C423.076 77.2156 423.853 78.9843 424.788 80.2776C428.55 85.482 435.207 87.7148 441.346 85.8308C442.871 85.3626 444.558 84.42 447.93 82.5348V82.5348C452.719 79.8577 455.114 78.5192 457.44 77.6825C466.69 74.355 476.984 75.7706 484.992 81.4718C487.006 82.9053 488.95 84.8405 492.839 88.711L496.306 92.1618C502.314 98.1422 505.318 101.132 508.646 102.627C513.654 104.878 519.368 104.97 524.446 102.882C527.82 101.495 530.919 98.6033 537.117 92.8197L549.379 81.3776C552.109 78.8296 553.474 77.5556 555.018 76.57C556.389 75.6953 557.86 74.9909 559.401 74.4724C561.137 73.8881 562.985 73.6239 566.683 73.0955L597.572 68.6802" stroke="#1C1C1C" stroke-linecap="round" style="mix-blend-mode:screen"/>
</g>
<defs>
<radialGradient id="paint0_radial_22111_1538" cx="0" cy="0" r="1" gradientUnits="userSpaceOnUse" gradientTransform="translate(319.312 65.369) rotate(90) scale(119.495 273.042)">
<stop stop-opacity="0.08"/>
<stop offset="1" stop-opacity="0"/>
</radialGradient>
<linearGradient id="paint1_linear_22111_1538" x1="43.677" y1="202.665" x2="597.572" y2="202.665" gradientUnits="userSpaceOnUse">
<stop stop-opacity="0.4"/>
<stop offset="1"/>
</linearGradient>
</defs>
</svg>
