<svg width="129" height="101" viewBox="0 0 129 101" fill="none" xmlns="http://www.w3.org/2000/svg">
<mask id="mask0_22111_1456" style="mask-type:luminance" maskUnits="userSpaceOnUse" x="-3" y="9" width="135" height="87">
<path d="M131.5 9.13H-2.5V95.13H131.5V9.13Z" fill="white"/>
</mask>
<g mask="url(#mask0_22111_1456)">
<path d="M9.28809 55.63V28.23C9.28809 24.8967 10.9548 23.23 14.2881 23.23H10.5121C13.8454 23.23 15.5121 24.8967 15.5121 28.23V55.63C15.5121 58.9633 13.8454 60.63 10.5121 60.63H14.2881C10.9548 60.63 9.28809 58.9633 9.28809 55.63Z" fill="#3B4055" fill-opacity="0.85" stroke="white" stroke-linecap="round"/>
</g>
<mask id="mask1_22111_1456" style="mask-type:luminance" maskUnits="userSpaceOnUse" x="-3" y="9" width="135" height="87">
<path d="M131.5 9.13H-2.5V95.13H131.5V9.13Z" fill="white"/>
</mask>
<g mask="url(#mask1_22111_1456)">
<path d="M35.0879 55.63V47.78C35.0879 44.4467 36.7546 42.78 40.0879 42.78H36.3119C39.6452 42.78 41.3119 44.4467 41.3119 47.78V55.63C41.3119 58.9633 39.6452 60.63 36.3119 60.63H40.0879C36.7546 60.63 35.0879 58.9633 35.0879 55.63Z" fill="#3B4055" fill-opacity="0.85" stroke="white" stroke-linecap="round"/>
</g>
<mask id="mask2_22111_1456" style="mask-type:luminance" maskUnits="userSpaceOnUse" x="-3" y="9" width="135" height="87">
<path d="M131.5 9.13H-2.5V95.13H131.5V9.13Z" fill="white"/>
</mask>
<g mask="url(#mask2_22111_1456)">
<path d="M60.8882 55.63V18.03C60.8882 14.6967 62.5549 13.03 65.8882 13.03H62.1122C65.4455 13.03 67.1122 14.6967 67.1122 18.03V55.63C67.1122 58.9633 65.4455 60.63 62.1122 60.63H65.8882C62.5549 60.63 60.8882 58.9633 60.8882 55.63Z" fill="#3B4055" fill-opacity="0.85" stroke="white" stroke-linecap="round"/>
</g>
<mask id="mask3_22111_1456" style="mask-type:luminance" maskUnits="userSpaceOnUse" x="-3" y="9" width="135" height="87">
<path d="M131.5 9.13H-2.5V95.13H131.5V9.13Z" fill="white"/>
</mask>
<g mask="url(#mask3_22111_1456)">
<path d="M86.688 55.63V36.73C86.688 33.3967 88.3547 31.73 91.688 31.73H87.912C91.2453 31.73 92.912 33.3967 92.912 36.73V55.63C92.912 58.9633 91.2453 60.63 87.912 60.63H91.688C88.3547 60.63 86.688 58.9633 86.688 55.63Z" fill="#3B4055" fill-opacity="0.85" stroke="white" stroke-linecap="round"/>
</g>
<mask id="mask4_22111_1456" style="mask-type:luminance" maskUnits="userSpaceOnUse" x="-3" y="9" width="135" height="87">
<path d="M131.5 9.13H-2.5V95.13H131.5V9.13Z" fill="white"/>
</mask>
<g mask="url(#mask4_22111_1456)">
<path d="M112.488 55.63V25.68C112.488 22.3467 114.154 20.68 117.488 20.68H113.712C117.045 20.68 118.712 22.3467 118.712 25.68V55.63C118.712 58.9633 117.045 60.63 113.712 60.63H117.488C114.154 60.63 112.488 58.9633 112.488 55.63Z" fill="#3B4055" fill-opacity="0.85" stroke="white" stroke-linecap="round"/>
</g>
<mask id="mask5_22111_1456" style="mask-type:luminance" maskUnits="userSpaceOnUse" x="-3" y="9" width="135" height="87">
<path d="M131.5 9.13H-2.5V95.13H131.5V9.13Z" fill="white"/>
</mask>
<g mask="url(#mask5_22111_1456)">
<path d="M9.28809 70.63V83.58C9.28809 86.9133 10.9548 88.58 14.2881 88.58H10.5121C13.8454 88.58 15.5121 86.9133 15.5121 83.58V70.63C15.5121 67.2967 13.8454 65.63 10.5121 65.63H14.2881C10.9548 65.63 9.28809 67.2967 9.28809 70.63Z" fill="#FF4D49" fill-opacity="0.85" stroke="white" stroke-linecap="round"/>
</g>
<mask id="mask6_22111_1456" style="mask-type:luminance" maskUnits="userSpaceOnUse" x="-3" y="9" width="135" height="87">
<path d="M131.5 9.13H-2.5V95.13H131.5V9.13Z" fill="white"/>
</mask>
<g mask="url(#mask6_22111_1456)">
<path d="M35.0879 70.63V75.08C35.0879 78.4133 36.7546 80.08 40.0879 80.08H36.3119C39.6452 80.08 41.3119 78.4133 41.3119 75.08V70.63C41.3119 67.2967 39.6452 65.63 36.3119 65.63H40.0879C36.7546 65.63 35.0879 67.2967 35.0879 70.63Z" fill="#FF4D49" fill-opacity="0.85" stroke="white" stroke-linecap="round"/>
</g>
<mask id="mask7_22111_1456" style="mask-type:luminance" maskUnits="userSpaceOnUse" x="-3" y="9" width="135" height="87">
<path d="M131.5 9.13H-2.5V95.13H131.5V9.13Z" fill="white"/>
</mask>
<g mask="url(#mask7_22111_1456)">
<path d="M60.8882 70.63V86.98C60.8882 90.3133 62.5549 91.98 65.8882 91.98H62.1122C65.4455 91.98 67.1122 90.3133 67.1122 86.98V70.63C67.1122 67.2967 65.4455 65.63 62.1122 65.63H65.8882C62.5549 65.63 60.8882 67.2967 60.8882 70.63Z" fill="#FF4D49" fill-opacity="0.85" stroke="white" stroke-linecap="round"/>
</g>
<mask id="mask8_22111_1456" style="mask-type:luminance" maskUnits="userSpaceOnUse" x="-3" y="9" width="135" height="87">
<path d="M131.5 9.13H-2.5V95.13H131.5V9.13Z" fill="white"/>
</mask>
<g mask="url(#mask8_22111_1456)">
<path d="M86.688 70.63V80.18C86.688 83.5133 88.3547 85.18 91.688 85.18H87.912C91.2453 85.18 92.912 83.5133 92.912 80.18V70.63C92.912 67.2967 91.2453 65.63 87.912 65.63H91.688C88.3547 65.63 86.688 67.2967 86.688 70.63Z" fill="#FF4D49" fill-opacity="0.85" stroke="white" stroke-linecap="round"/>
</g>
<mask id="mask9_22111_1456" style="mask-type:luminance" maskUnits="userSpaceOnUse" x="-3" y="9" width="135" height="87">
<path d="M131.5 9.13H-2.5V95.13H131.5V9.13Z" fill="white"/>
</mask>
<g mask="url(#mask9_22111_1456)">
<path d="M112.488 70.63V86.98C112.488 90.3133 114.154 91.98 117.488 91.98H113.712C117.045 91.98 118.712 90.3133 118.712 86.98V70.63C118.712 67.2967 117.045 65.63 113.712 65.63H117.488C114.154 65.63 112.488 67.2967 112.488 70.63Z" fill="#FF4D49" fill-opacity="0.85" stroke="white" stroke-linecap="round"/>
</g>
</svg>
