<svg width="103" height="96" viewBox="0 0 103 96" fill="none" xmlns="http://www.w3.org/2000/svg">
<path d="M51.5 10.8864C60.1596 10.8864 68.5994 13.6122 75.6233 18.6772C82.6471 23.7423 87.8986 30.8897 90.6333 39.1064C93.368 47.3231 93.4471 56.1921 90.8595 64.4562C88.2719 72.7204 83.1489 79.9605 76.2166 85.1501L68.8016 75.2446C73.6542 71.6118 77.2404 66.5438 79.0517 60.7589C80.863 54.9739 80.8076 48.7656 78.8933 43.014C76.979 37.2623 73.303 32.2591 68.3863 28.7135C63.4696 25.168 57.5617 23.26 51.5 23.26V10.8864Z" fill="#666CFF" stroke="white" stroke-width="5"/>
<path d="M76.2162 85.1501C70.2871 89.5887 63.2723 92.3487 55.9084 93.1405C48.5445 93.9322 41.1033 92.7263 34.3663 89.6495C27.6293 86.5728 21.845 81.7386 17.6211 75.6547C13.3971 69.5708 10.8892 62.4617 10.3608 55.074L22.7025 54.1913C23.0723 59.3627 24.8278 64.339 27.7846 68.5977C30.7414 72.8565 34.7904 76.2404 39.5063 78.3942C44.2222 80.5479 49.4311 81.392 54.5858 80.8378C59.7405 80.2836 64.6509 78.3515 68.8012 75.2445L76.2162 85.1501Z" fill="#72E128" stroke="white" stroke-width="5"/>
<path d="M10.3609 55.074C9.95692 49.4248 10.7207 43.7528 12.6046 38.4117C14.4885 33.0705 17.4523 28.1746 21.3111 24.029C25.17 19.8835 29.8413 16.5771 35.0338 14.316C40.2264 12.0549 45.8291 10.8874 51.4926 10.8864L51.4947 23.26C47.5303 23.2607 43.6084 24.0779 39.9736 25.6607C36.3388 27.2435 33.0689 29.5579 30.3677 32.4598C27.6665 35.3617 25.5919 38.7888 24.2731 42.5276C22.9544 46.2665 22.4198 50.2368 22.7026 54.1913L10.3609 55.074Z" fill="#6D788D" stroke="white" stroke-width="5"/>
<path d="M41.733 43.4949V55.1313H40.3239V44.9722H40.2557L37.4148 46.8585V45.4267L40.3239 43.4949H41.733ZM45.0795 55.1313V54.1085L48.9205 49.904C49.3712 49.4116 49.7424 48.9835 50.0341 48.6199C50.3258 48.2525 50.5417 47.9078 50.6818 47.5858C50.8258 47.26 50.8977 46.9191 50.8977 46.5631C50.8977 46.154 50.7992 45.7998 50.6023 45.5006C50.4091 45.2013 50.1439 44.9703 49.8068 44.8074C49.4697 44.6445 49.0909 44.5631 48.6705 44.5631C48.2235 44.5631 47.8333 44.6559 47.5 44.8415C47.1705 45.0233 46.9148 45.279 46.733 45.6085C46.5549 45.9381 46.4659 46.3244 46.4659 46.7676H45.125C45.125 46.0858 45.2822 45.4873 45.5966 44.9722C45.911 44.457 46.339 44.0555 46.8807 43.7676C47.4261 43.4797 48.0379 43.3358 48.7159 43.3358C49.3977 43.3358 50.0019 43.4797 50.5284 43.7676C51.0549 44.0555 51.4678 44.4438 51.767 44.9324C52.0663 45.421 52.2159 45.9646 52.2159 46.5631C52.2159 46.9911 52.1383 47.4097 51.983 47.8188C51.8314 48.2241 51.5663 48.6767 51.1875 49.1767C50.8125 49.6729 50.2917 50.279 49.625 50.9949L47.0114 53.7903V53.8813H52.4205V55.1313H45.0795ZM60.6989 52.9494V52.3358C60.6989 51.9116 60.786 51.5233 60.9602 51.171C61.1383 50.815 61.3958 50.5309 61.733 50.3188C62.0739 50.1028 62.4867 49.9949 62.9716 49.9949C63.464 49.9949 63.8769 50.1028 64.2102 50.3188C64.5436 50.5309 64.7955 50.815 64.9659 51.171C65.1364 51.5233 65.2216 51.9116 65.2216 52.3358V52.9494C65.2216 53.3737 65.1345 53.7638 64.9602 54.1199C64.7898 54.4722 64.536 54.7563 64.1989 54.9722C63.8655 55.1843 63.4564 55.2903 62.9716 55.2903C62.4792 55.2903 62.0644 55.1843 61.7273 54.9722C61.3902 54.7563 61.1345 54.4722 60.9602 54.1199C60.786 53.7638 60.6989 53.3737 60.6989 52.9494ZM61.858 52.3358V52.9494C61.858 53.3017 61.9413 53.618 62.108 53.8983C62.2746 54.1748 62.5625 54.3131 62.9716 54.3131C63.3693 54.3131 63.6496 54.1748 63.8125 53.8983C63.9792 53.618 64.0625 53.3017 64.0625 52.9494V52.3358C64.0625 51.9835 63.983 51.6691 63.8239 51.3926C63.6648 51.1123 63.3807 50.9722 62.9716 50.9722C62.5739 50.9722 62.2879 51.1123 62.1136 51.3926C61.9432 51.6691 61.858 51.9835 61.858 52.3358ZM54.9034 46.2903V45.6767C54.9034 45.2525 54.9905 44.8642 55.1648 44.5119C55.3428 44.1559 55.6004 43.8718 55.9375 43.6597C56.2784 43.4438 56.6913 43.3358 57.1761 43.3358C57.6686 43.3358 58.0814 43.4438 58.4148 43.6597C58.7481 43.8718 59 44.1559 59.1705 44.5119C59.3409 44.8642 59.4261 45.2525 59.4261 45.6767V46.2903C59.4261 46.7146 59.339 47.1047 59.1648 47.4608C58.9943 47.8131 58.7405 48.0972 58.4034 48.3131C58.0701 48.5252 57.661 48.6313 57.1761 48.6313C56.6837 48.6313 56.2689 48.5252 55.9318 48.3131C55.5947 48.0972 55.339 47.8131 55.1648 47.4608C54.9905 47.1047 54.9034 46.7146 54.9034 46.2903ZM56.0625 45.6767V46.2903C56.0625 46.6426 56.1458 46.9589 56.3125 47.2392C56.4792 47.5157 56.767 47.654 57.1761 47.654C57.5739 47.654 57.8542 47.5157 58.017 47.2392C58.1837 46.9589 58.267 46.6426 58.267 46.2903V45.6767C58.267 45.3244 58.1875 45.01 58.0284 44.7335C57.8693 44.4532 57.5852 44.3131 57.1761 44.3131C56.7784 44.3131 56.4924 44.4532 56.3182 44.7335C56.1477 45.01 56.0625 45.3244 56.0625 45.6767ZM55.3352 55.1313L63.3352 43.4949H64.6307L56.6307 55.1313H55.3352Z" fill="#3B4055"/>
</svg>
