<svg width="168" height="183" viewBox="0 0 168 183" fill="none" xmlns="http://www.w3.org/2000/svg">
<path d="M14.8008 84.8986C17.6171 68.965 25.9084 54.5433 38.2171 44.1691C50.5258 33.7949 66.0639 28.1321 82.0999 28.1764L82.0045 63.3776C74.1726 63.356 66.5837 66.1217 60.5722 71.1885C54.5606 76.2552 50.5111 83.2988 49.1356 91.0807L14.8008 84.8986Z" fill="#F3F3F4"/>
<path d="M29.433 146.035C21.2436 137.813 15.1505 127.711 11.6754 116.592C8.62746 106.84 7.67325 96.5617 8.85638 86.4385C9.13116 84.0874 11.3721 82.536 13.7016 82.9563L41.2809 87.9323C43.5999 88.3507 45.116 90.5683 44.9856 92.9211C44.7506 97.1596 45.2759 101.418 46.5483 105.489C48.2455 110.919 51.2213 115.853 55.2211 119.869L29.433 146.035Z" fill="#FF922B"/>
<path d="M78.4272 5.08629C78.4272 2.72453 80.3432 0.799447 82.7023 0.91041C101.947 1.81557 120.463 8.81354 135.593 20.9673C150.738 33.1324 161.656 49.7931 166.843 68.5391C167.471 70.8088 166.031 73.0998 163.737 73.6331L119.137 84.0006C116.83 84.5369 114.55 83.0844 113.766 80.8491C111.433 74.1909 107.289 68.2952 101.769 63.8618C96.2552 59.4324 89.6397 56.68 82.6943 55.8769C80.3482 55.6056 78.4272 53.7164 78.4272 51.3547V5.08629Z" fill="#339AF0"/>
<path d="M155.93 75.1219C159.887 92.1542 158.228 110.025 151.205 126.018C144.182 142.012 132.179 155.256 117.019 163.737C101.86 172.218 84.3714 175.473 67.2113 173.008C51.4463 170.744 36.7498 163.765 24.9939 153.02C23.262 151.437 23.2787 148.742 24.9358 147.081L50.8405 121.115C56.8057 127.178 64.5684 131.11 72.9494 132.313C81.3303 133.517 89.8716 131.927 97.2757 127.785C104.68 123.643 110.542 117.175 113.972 109.364C116.83 102.856 117.869 95.7115 117.019 88.698C116.735 86.3602 118.132 84.0673 120.424 83.5249L155.93 75.1219Z" fill="#51CF66"/>
<g filter="url(#filter0_d_22111_1602)">
<ellipse cx="81.9892" cy="94.9209" rx="40.9883" ry="41.3695" fill="white"/>
</g>
<defs>
<filter id="filter0_d_22111_1602" x="0.375717" y="18.6279" width="163.227" height="163.99" filterUnits="userSpaceOnUse" color-interpolation-filters="sRGB">
<feFlood flood-opacity="0" result="BackgroundImageFix"/>
<feColorMatrix in="SourceAlpha" type="matrix" values="0 0 0 0 0 0 0 0 0 0 0 0 0 0 0 0 0 0 127 0" result="hardAlpha"/>
<feOffset dy="5.70179"/>
<feGaussianBlur stdDeviation="20.3126"/>
<feColorMatrix type="matrix" values="0 0 0 0 0 0 0 0 0 0 0 0 0 0 0 0 0 0 0.14 0"/>
<feBlend mode="normal" in2="BackgroundImageFix" result="effect1_dropShadow_22111_1602"/>
<feBlend mode="normal" in="SourceGraphic" in2="effect1_dropShadow_22111_1602" result="shape"/>
</filter>
</defs>
</svg>
