<svg width="15" height="15" viewBox="0 0 15 15" fill="none" xmlns="http://www.w3.org/2000/svg">
<path d="M14.5776 7.20994C14.7726 7.02275 14.9084 6.78835 14.9698 6.5329C15.0312 6.27745 15.0159 6.011 14.9254 5.76328C14.8406 5.51482 14.6832 5.29373 14.4711 5.12519C14.259 4.95664 14.0008 4.84742 13.7259 4.80995L10.6808 4.36995C10.6666 4.36608 10.6535 4.35929 10.6424 4.35006C10.6314 4.34083 10.6227 4.32941 10.6169 4.31661L9.28249 1.64995C9.16548 1.40024 8.97367 1.18788 8.73044 1.03874C8.48721 0.889597 8.20305 0.810106 7.91257 0.809948C7.62546 0.808833 7.34411 0.885625 7.10234 1.03109C6.86058 1.17656 6.66869 1.38451 6.54975 1.62995L5.21532 4.29661C5.20803 4.30961 5.19797 4.32106 5.18576 4.33024C5.17354 4.33942 5.15944 4.34613 5.14434 4.34995L2.10638 4.80995C1.83104 4.84847 1.57248 4.95798 1.35945 5.12628C1.14642 5.29459 0.987273 5.51509 0.899709 5.76328C0.812614 6.01187 0.799645 6.27811 0.862208 6.53313C0.924771 6.78815 1.06048 7.02222 1.25461 7.20994L3.49759 9.37661C3.50405 9.39025 3.50739 9.40501 3.50739 9.41994C3.50739 9.43487 3.50405 9.44963 3.49759 9.46328L2.97234 12.4899C2.92351 12.7535 2.95534 13.0247 3.06413 13.272C3.17293 13.5193 3.35421 13.7324 3.58691 13.8868C3.81961 14.0411 4.09417 14.1302 4.37866 14.1437C4.66316 14.1573 4.9459 14.0947 5.19402 13.9633L7.84159 12.5833C7.85474 12.5768 7.86935 12.5735 7.88418 12.5735C7.89901 12.5735 7.91361 12.5768 7.92677 12.5833L10.5743 13.9633C10.8228 14.0919 11.1048 14.1522 11.388 14.1374C11.6712 14.1226 11.9443 14.0333 12.1761 13.8796C12.4078 13.7259 12.5888 13.5141 12.6985 13.2684C12.8081 13.0226 12.8419 12.7529 12.796 12.4899L12.3063 9.47661C12.2988 9.46445 12.2948 9.45065 12.2948 9.43661C12.2948 9.42257 12.2988 9.40877 12.3063 9.39661L14.5776 7.20994Z" fill="#FCC419"/>
</svg>
